<svg xmlns="http://www.w3.org/2000/svg" width="64" height="64">
    <style>
        .lightdark { fill: black;}
        @media (prefers-color-scheme: dark) {
        .lightdark { fill: white; }
        }
    </style>
    <path class="lightdark" d="M32 10.625c-14.56 0-26.987 8.853-32 21.333 5.013 12.48 17.44 21.334 32 21.334s26.987-8.853 32-21.334c-5.013-12.48-17.44-21.333-32-21.333" style="stroke-width:5.33335"/>
    <path d="M32 45.292c-7.36 0-13.333-5.973-13.333-13.334S24.64 18.625 32 18.625s13.333 5.973 13.333 13.333S39.36 45.292 32 45.292" style="stroke-width:5.33335;fill:#f80;fill-opacity:1"/>
    <g transform="translate(24.466 22.412)scale(2.11612)">
        <circle cx=".941" cy="7.059" r=".915" fill="#fff" style="stroke-width:.0261438"/>
        <path fill="none" stroke="#fff" stroke-width="1.569" d="M0 3.765A4.25 4.25 0 0 1 4.235 8M0 .784C3.974.784 7.216 4.026 7.216 8"/>
    </g>
</svg>
