<svg xmlns="http://www.w3.org/2000/svg" width="64" height="64">
    <style>
        .lightdark { fill: black;}
        @media (prefers-color-scheme: dark) {
            .lightdark { fill: white; }
        }
    </style>
    <path class="lightdark" d="m38.469 46.23 16.36 16.554a4.09 4.09 0 0 0 5.794.026 4.115 4.115 0 0 0 .026-5.808L44.872 41.039a24.72 24.72 0 0 0 6.157-16.375C51.029 11.051 40.106 0 26.614 0S2.2 11.05 2.2 24.664c0 13.613 10.922 24.664 24.414 24.664A24.1 24.1 0 0 0 38.47 46.23" style="stroke-width:.0710226"/>
    <path d="M26.614 41.113c-8.95 0-16.22-7.356-16.22-16.45 0-9.092 7.27-16.449 16.22-16.449s16.221 7.357 16.221 16.45-7.27 16.45-16.22 16.45" style="fill:#f80;fill-opacity:1;stroke-width:.0710226"/>
    <g transform="matrix(.06503 0 0 .06503 11.21 6.667)">
        <circle cx="145" cy="367" r="35" fill="#fff"/>
        <path fill="none" stroke="#fff" stroke-width="60" d="M109 241c89 0 162 73 162 162M109 127c152 0 276 124 276 276"/>
    </g>
</svg>
