<svg xmlns="http://www.w3.org/2000/svg" id="svg7" width="120" height="60" version="1.1" viewBox="-25 -26.75 120 60"><style id="style1" type="text/css">.path{fill:none;stroke:#66899a}.path+.path{stroke:#e1d85d}.electron{fill:#66899a;stroke:#fff}</style><ellipse id="ellipse1" cx="3.439" cy="5.726" class="path" rx="2.532" ry="18.57" style="stroke-width:.844076"/><ellipse id="ellipse2" cx="-3.832" cy="5.471" class="path" rx="2.532" ry="18.57" style="stroke-width:.844076" transform="rotate(-66)"/><ellipse id="ellipse3" cx="6.63" cy="-.813" class="path" rx="2.532" ry="18.57" style="stroke:#80a3cf;stroke-width:.844076" transform="rotate(66)"/><circle id="circle3" cx="3.439" cy="5.726" r="18.57" style="fill:none;stroke:#4b541f;stroke-width:.844076"/><circle id="circle4" cx="3.439" cy="5.726" r="5.486" style="fill:#80a3cf;stroke:#fff;stroke-width:.844076"/><circle id="circle5" cx="3.439" cy="-12.843" r="3.798" class="electron" style="stroke-width:.844076"/><circle id="circle6" cx="-13.442" cy="13.323" r="3.798" class="electron" style="stroke-width:.844076"/><circle id="circle7" cx="20.321" cy="13.323" r="3.798" class="electron" style="stroke-width:.844076"/><path id="text7" d="M40.222 9.926h-5.28l-1.312 5.056h-4l6.496-22.56h3.168l6.528 22.56h-4.224zm-4.416-3.328h3.712l-1.28-5.216-.512-3.52h-.128l-.544 3.552zm9.312-7.616h1.76v-3.008l3.808-1.184v4.192h3.104v3.392h-3.104V9.35q0 1.376.256 1.952.288.576.992.576.48 0 .864-.096t.832-.288l.48 3.04q-.704.352-1.632.576-.928.256-1.952.256-1.824 0-2.752-1.056-.896-1.056-.896-3.552V2.374h-1.76zm9.984 8q0-4.256 1.664-6.336t4.64-2.08q3.2 0 4.768 2.112t1.568 6.304q0 4.288-1.664 6.368-1.664 2.048-4.672 2.048-6.304 0-6.304-8.416m3.936 0q0 2.4.544 3.712t1.824 1.312q1.216 0 1.792-1.12.608-1.152.608-3.904 0-2.464-.544-3.744t-1.856-1.28q-1.12 0-1.76 1.152-.608 1.12-.608 3.872m18.272 8V5.67q0-2.016-.32-2.784-.32-.8-1.248-.8-.768 0-1.28.512-.48.48-.736 1.184v11.2h-3.808v-16h2.944l.48 1.92h.096q.608-.992 1.504-1.632.928-.672 2.432-.672 1.248 0 2.016.544.8.544 1.248 1.92.608-1.152 1.6-1.792.992-.672 2.336-.672 1.056 0 1.792.288.768.256 1.216.928.48.672.704 1.856.224 1.152.224 2.944v10.368h-3.808V5.254q0-1.632-.288-2.4t-1.28-.768q-.8 0-1.312.48-.48.448-.704 1.248v11.168Z" aria-label="Atom" style="font-weight:700;font-size:32px;line-height:1;font-family:&quot;PT Sans Narrow&quot;;-inkscape-font-specification:&quot;PT Sans Narrow Bold&quot;;stroke-width:2.471;stroke-linecap:square"/></svg>